<svg xmlns="http://www.w3.org/2000/svg" width="313.74" height="314.114" viewBox="0 0 313.74 314.114"><path fill="#2B2B2B" d="M308.241 157.041c0 83.604-67.767 151.385-151.343 151.385-83.602 0-151.399-67.78-151.399-151.385 0-83.589 67.798-151.353 151.399-151.353 83.576 0 151.343 67.764 151.343 151.353z"/><path d="M69.987 165.111l-24.745 26.798 112.933 116.46c70.989-.596 130.211-50.098 145.884-116.46l-55.283-53.438-178.789 26.64z"/><path fill="#FBAB2D" d="M264.74 180.327v-21.131c0-11.885-9.618-21.535-21.521-21.535h-49.56v-7.027c0-25.784-20.896-46.683-46.681-46.683H94.972c-25.77 0-46.667 20.898-46.667 46.683v49.693h-3.063v11.582h6.534c-.462-2.198-.707-4.482-.707-6.813 0-18.233 14.839-33.069 33.061-33.069 18.236 0 33.058 14.836 33.058 33.069 0 2.331-.247 4.615-.708 6.813h74.679c-.477-2.198-.722-4.482-.722-6.813 0-18.233 14.839-33.069 33.062-33.069 18.23 0 33.071 14.836 33.071 33.069 0 2.331-.248 4.615-.708 6.813h12.651v-11.582h-3.773z"/><path fill="#FFF" d="M84.129 156.535c-15.767 0-28.547 12.785-28.547 28.561 0 15.779 12.78 28.562 28.547 28.562 15.777 0 28.562-12.783 28.562-28.562.001-15.776-12.784-28.561-28.562-28.561z"/><path fill="#FBAB2D" d="M84.129 203.679c-10.238 0-18.586-8.342-18.586-18.583 0-10.239 8.348-18.583 18.586-18.583 10.253 0 18.581 8.344 18.581 18.583 0 10.241-8.328 18.583-18.581 18.583z"/><path fill="#3B4350" d="M112.82 146.662H99.543c-1.229 0-2.214-1.019-2.214-2.23 0-1.216.984-2.214 2.214-2.214h13.276c1.229 0 2.214.998 2.214 2.214.001 1.212-.984 2.23-2.213 2.23z"/><path fill="#FFF" d="M115.463 138.198H58.472v-8.95c0-20.029 17.182-36.331 38.31-36.331h18.682v45.281z"/><path fill="#3B4350" d="M179.097 146.662h-13.279c-1.223 0-2.207-1.019-2.207-2.23 0-1.216.984-2.214 2.207-2.214h13.279c1.228 0 2.212.998 2.212 2.214 0 1.212-.984 2.23-2.212 2.23z"/><path fill="#FFF" d="M223.499 156.535c-15.769 0-28.554 12.785-28.554 28.561 0 15.779 12.785 28.562 28.554 28.562 15.775 0 28.556-12.783 28.556-28.562-.001-15.776-12.781-28.561-28.556-28.561z"/><path fill="#FBAB2D" d="M223.499 203.679c-10.246 0-18.571-8.342-18.571-18.583 0-10.239 8.325-18.583 18.571-18.583s18.578 8.344 18.578 18.583c0 10.241-8.332 18.583-18.578 18.583z"/><path fill="#FFF" d="M183.826 138.198h-57.007V92.917h18.698c21.118 0 38.309 16.302 38.309 36.331v8.95z"/><path fill="none" stroke="#FBAB2D" stroke-width="9.244" stroke-miterlimit="10" d="M308.241 157.041c0 83.604-67.767 151.385-151.343 151.385-83.602 0-151.399-67.78-151.399-151.385 0-83.589 67.798-151.353 151.399-151.353 83.576 0 151.343 67.764 151.343 151.353z"/></svg>