<svg xmlns="http://www.w3.org/2000/svg" width="207.375" height="207.375" viewBox="0 0 207.375 207.375"><circle fill="#2B2B2B" cx="103.688" cy="103.688" r="99.999"/><path d="M191.536 151.492c-.051-.044-.102-.091-.15-.142-.025-.028-70.018-70.017-70.114-70.112-.022-.027-.037-.054-.061-.081-2.154-2.395-5.377-3.165-8.166-2.282L89.874 55.691c-1.891-2.1-5.326-2.094-7.673.019-2.346 2.113-2.715 5.528-.829 7.627l.916 1.02c2.913 12.616-1.637 27.261-13.867 38.504l-.062-.067c-.14.125-.275.253-.414.379-1.792 1.611-23.532 20.614-23.532 20.614-4.105 3.692-4.634 9.797-1.187 13.625l.017.018c.006.007.009.014.015.02l7.184 7.982 1.718 1.907 5.142 5.715c.057.063 50.539 50.527 50.539 50.527 36.155-1.478 67.359-22.136 83.695-52.089z"/><path fill-rule="evenodd" clip-rule="evenodd" fill="#FBAB2D" d="M72.71 138.587c9.764 16.533 25.337 24.771 36.108 18.514 5.24-3.043 8.434-8.994 9.491-16.36-9.035 4.499-21.699-2.098-30.92-15.366L72.71 138.587z"/><path fill-rule="evenodd" clip-rule="evenodd" fill="#D38620" d="M87.39 125.374l-9.049 8.143c9.754 13.517 23.45 19.738 33.207 14.072 2.653-1.54 4.779-3.833 6.375-6.666-9.007 4.12-21.442-2.472-30.533-15.549z"/><path fill="#FFF" d="M81.244 60.708c4.853 13.495.532 30.157-13.229 42.543-1.79 1.615-23.529 20.617-23.529 20.617-4.105 3.694-4.656 9.774-1.229 13.582l13.982 15.536c3.424 3.804 9.531 3.896 13.633.199 0 0 20.648-18.757 22.442-20.373 13.762-12.387 31.17-15.955 44.083-9.712l.707-.63-23.782-26.423-8.595-9.554-23.782-26.422-.701.637zM110.354 80.362c3.096-2.781 7.956-2.427 10.857.796 2.901 3.226 2.746 8.097-.348 10.884l-10.509-11.68z"/><path opacity=".4" fill="#9EA6A8" d="M114.323 96.046l-4.632-5.149-59.25 54.535 6.799 7.554c3.424 3.804 9.531 3.896 13.633.199 0 0 20.648-18.757 22.442-20.373 13.762-12.387 31.17-15.955 44.083-9.712l.707-.63-23.782-26.424z"/><path fill="#D38620" d="M68.358 102.794c-.14.125-.275.253-.414.379-1.792 1.611-23.532 20.614-23.532 20.614-4.105 3.692-4.634 9.797-1.187 13.625L57.3 153.054c3.45 3.83 9.571 3.942 13.676.25 0 0 20.648-18.759 22.441-20.376.381-.346.769-.677 1.156-1.01l-26.215-29.124z"/><path fill="#FFF" d="M68.015 103.25c-1.79 1.615-23.529 20.617-23.529 20.617-4.105 3.694-4.656 9.774-1.229 13.582l6.873 7.639 59.85-53.869-4.252-4.726-23.783-26.422-.701.637c4.852 13.494.531 30.156-13.229 42.542z"/><path fill="#FBAB2D" d="M143.297 115.045c1.889 2.1 1.514 5.513-.833 7.625-2.347 2.111-5.78 2.122-7.67.022L81.372 63.337c-1.886-2.099-1.517-5.515.829-7.627 2.347-2.113 5.782-2.119 7.673-.019l53.423 59.354zM68.434 102.875c-.135.128-.27.261-.412.386-1.79 1.615-23.536 20.606-23.536 20.606-4.105 3.694-4.577 9.862-1.051 13.779l7.068 7.854 31.1-27.993-13.169-14.632z"/><path fill="#D38620" d="M82.201 55.71c-2.346 2.113-2.715 5.528-.829 7.627l26.667 29.629 8.503-7.648-26.668-29.627c-1.891-2.1-5.326-2.094-7.673.019z"/><path fill="#FFF" d="M139.575 87.499l-6.238-1.652c1.157-4.369.045-8.978-2.976-12.333-3.015-3.349-7.482-4.937-11.953-4.252l-.98-6.375c6.626-1.018 13.253 1.34 17.731 6.314 4.477 4.977 6.128 11.819 4.416 18.298zM148.173 83.372c.287-7.235-2.215-14.174-7.05-19.544-4.834-5.372-11.47-8.588-18.692-9.056l.419-6.438c8.91.579 17.103 4.549 23.072 11.181 5.967 6.625 9.055 15.191 8.699 24.113l-6.448-.256z"/><g><circle fill="none" stroke="#FBAB2D" stroke-width="6.1068" stroke-miterlimit="10" cx="103.688" cy="103.688" r="99.999"/></g></svg>