<svg xmlns="http://www.w3.org/2000/svg" width="207.375" height="207.375" viewBox="0 0 207.375 207.375"><path fill="#2B2B2B" d="M203.688 103.677c0 55.233-44.78 100.01-100 100.01-55.223 0-100-44.777-100-100.01 0-55.22 44.777-99.99 100-99.99 55.219.001 100 44.771 100 99.99z"/><path d="M31.413 120.769l82.19 82.425c48.649-4.798 87.058-44.456 89.905-93.65l-38.583-39.936-133.512 51.161z"/><path fill="#EAB234" d="M177.022 99.75c0-22.44-23.273-40.649-51.933-40.649-28.375 0-53.41 16.784-53.41 41.597 0 30.326 31.08 56.395 54.842 53.321-8.379-3.633-14.351-9.316-18.189-15.823 5.265 1.394 10.91 2.177 16.758 2.177 28.659.001 51.932-18.199 51.932-40.623z"/><path fill="#231F20" d="M119.029 132.98c0 1.682 2.686 3.029 5.992 3.029 3.314 0 5.992-1.348 5.992-3.029 0-1.663-2.678-3.037-5.992-3.037-3.306 0-5.992 1.374-5.992 3.037z" opacity=".6"/><path fill="#FBAB2D" d="M177.022 95.702c0-22.482-23.273-40.674-51.933-40.674-28.375 0-53.312 16.788-53.41 41.581-.179 35.34 31.08 60.484 54.842 57.411-8.379-3.633-14.351-13.417-18.189-19.892 5.265 1.384 10.91 2.177 16.758 2.177 28.659 0 51.932-18.211 51.932-40.603z"/><path fill="#D38620" d="M125.09 55.028c-28.375 0-53.312 16.788-53.41 41.581 0 .113.008.225.008.338h105.294c.017-.414.041-.827.041-1.245-.001-22.482-23.274-40.674-51.933-40.674z"/><g fill="#FFF"><path d="M112.488 96.948c0 4.451-3.609 8.075-8.067 8.075s-8.067-3.625-8.067-8.075c0-4.447 3.609-8.075 8.067-8.075s8.067 3.628 8.067 8.075zM134.233 96.948c0 4.451-3.606 8.075-8.064 8.075-4.451 0-8.067-3.625-8.067-8.075 0-4.447 3.616-8.075 8.067-8.075 4.458.001 8.064 3.628 8.064 8.075zM155.982 96.948c0 4.451-3.601 8.075-8.059 8.075s-8.076-3.625-8.076-8.075c0-4.447 3.618-8.075 8.076-8.075s8.059 3.628 8.059 8.075z"/></g><path fill="#C1C2C6" d="M28.021 105.973c0-15.269 15.818-27.672 35.327-27.672 19.319 0 36.374 11.43 36.374 28.322 0 20.636-21.163 38.367-37.354 36.293 5.71-2.476 9.792-6.361 12.39-10.775-3.571.954-7.415 1.468-11.409 1.468-19.509 0-35.328-12.369-35.328-27.636z"/><path fill="#FFF" d="M28.021 103.189c0-15.274 15.818-27.657 35.327-27.657 19.319 0 36.297 11.436 36.374 28.317.115 24.028-21.163 41.14-37.354 39.066 5.71-2.476 9.792-9.145 12.39-13.549-3.571.948-7.415 1.484-11.409 1.484-19.509.001-35.328-12.372-35.328-27.661z"/><path fill="none" stroke="#FBAB2D" stroke-width="6.1069" stroke-miterlimit="10" d="M203.688 103.677c0 55.233-44.78 100.01-100 100.01-55.223 0-100-44.777-100-100.01 0-55.22 44.777-99.99 100-99.99 55.219.001 100 44.771 100 99.99z"/></svg>